<?xml version="1.0" encoding="utf-8"?>
<!-- Generator: Adobe Illustrator 19.1.0, SVG Export Plug-In . SVG Version: 6.00 Build 0)  -->
<svg version="1.1" id="Layer_1" xmlns="http://www.w3.org/2000/svg" xmlns:xlink="http://www.w3.org/1999/xlink" x="0px" y="0px"
	 viewBox="0 0 120 120" style="enable-background:new 0 0 120 120;" xml:space="preserve">
<style type="text/css">
	.st0{fill:#414042;}
	.st1{fill:#FFFFFF;}
	.st2{fill:#FFFFFF;stroke:#414042;stroke-width:3;stroke-miterlimit:10;}
	.st3{fill:none;stroke:#ED1C24;stroke-width:3;stroke-linecap:round;stroke-linejoin:round;stroke-miterlimit:10;}
	.st4{fill:#00A651;}
</style>
<circle class="st0" cx="60" cy="60" r="60"/>
<g>
	<polygon class="st1" points="27.3,15 27.3,99.8 92.7,99.8 92.7,34.2 73.5,15 	"/>
	<polygon class="st2" points="92.7,34.2 73.5,15 73.5,34.2 	"/>
</g>
<g>
	<g>
		<path d="M53.7,64.2h-4.5l-1.3-4.1h-6.5L40,64.2h-4.5l6.7-18.4h4.9L53.7,64.2z M46.9,57l-2-6.2c-0.1-0.5-0.2-1-0.3-1.7h-0.1
			c0,0.5-0.1,1.1-0.3,1.6l-2,6.2H46.9z"/>
		<path d="M56,64.2V45.9h6.7c2,0,3.6,0.4,4.7,1.1c1.1,0.8,1.7,1.8,1.7,3.2c0,1-0.3,1.9-1,2.6s-1.5,1.3-2.6,1.5v0.1
			c1.3,0.2,2.3,0.6,3.1,1.4c0.8,0.8,1.2,1.8,1.2,2.9c0,1.7-0.6,3-1.8,4c-1.2,1-2.8,1.5-4.9,1.5H56z M60.1,48.9v4.4h1.8
			c0.9,0,1.5-0.2,2-0.6s0.7-1,0.7-1.7c0-1.3-1-2-3-2H60.1z M60.1,56.4v4.8h2.2c1,0,1.7-0.2,2.2-0.7s0.8-1.1,0.8-1.8
			c0-0.7-0.3-1.3-0.8-1.7c-0.5-0.4-1.3-0.6-2.2-0.6H60.1z"/>
		<path d="M85.9,63.6c-1.3,0.6-3.1,1-5.3,1c-2.8,0-5-0.8-6.6-2.5c-1.6-1.7-2.4-3.9-2.4-6.6c0-2.9,0.9-5.3,2.7-7.1
			c1.8-1.8,4.2-2.7,7.1-2.7c1.8,0,3.3,0.2,4.5,0.7v4c-1.2-0.7-2.6-1.1-4.2-1.1c-1.7,0-3.1,0.5-4.2,1.6c-1.1,1.1-1.6,2.6-1.6,4.4
			c0,1.8,0.5,3.2,1.5,4.2s2.3,1.6,4,1.6c1.6,0,3.1-0.4,4.4-1.2V63.6z"/>
	</g>
	<g>
		<g>
			<polyline class="st3" points="80,71.1 83,68.2 85.9,71.1 			"/>
		</g>
		<g>
			<polyline class="st3" points="74,71.1 77,68.2 79.9,71.1 			"/>
		</g>
		<g>
			<polyline class="st3" points="68,71.1 71,68.2 73.9,71.1 			"/>
		</g>
		<g>
			<polyline class="st3" points="62,71.1 65,68.2 67.9,71.1 			"/>
		</g>
		<g>
			<polyline class="st3" points="56,71.1 59,68.2 61.9,71.1 			"/>
		</g>
		<g>
			<polyline class="st3" points="50,71.1 53,68.2 55.9,71.1 			"/>
		</g>
		<g>
			<polyline class="st3" points="44,71.1 47,68.2 49.9,71.1 			"/>
		</g>
		<g>
			<polyline class="st3" points="38,71.1 41,68.2 43.9,71.1 			"/>
		</g>
	</g>
</g>
<g>
	<circle class="st4" cx="83.1" cy="90.4" r="14.9"/>
	<g>
		<g>
			<path class="st1" d="M79.9,98.9c-0.7,0-1.3-0.3-1.8-0.7l-4.1-4.1c-1-1-1-2.5,0-3.5c1-1,2.5-1,3.5,0l2.3,2.3l8.7-8.7
				c1-1,2.5-1,3.5,0c1,1,1,2.5,0,3.5L81.7,98.1C81.2,98.6,80.6,98.9,79.9,98.9z"/>
		</g>
	</g>
</g>
</svg>
